<?xml version="1.0" standalone="no"?>
<!DOCTYPE svg PUBLIC "-//W3C//DTD SVG 20010904//EN"
 "http://www.w3.org/TR/2001/REC-SVG-20010904/DTD/svg10.dtd">
<svg version="1.0" xmlns="http://www.w3.org/2000/svg"
 width="1024.000000pt" height="1024.000000pt" viewBox="0 0 1024.000000 1024.000000"
 preserveAspectRatio="xMidYMid meet">

<g transform="translate(0.000000,1024.000000) scale(0.100000,-0.100000)"
fill="#000000" stroke="none">
<path d="M7 10233 c-4 -3 -7 -509 -7 -1123 l0 -1118 62 -22 c66 -24 392 -146
613 -230 379 -143 1003 -372 1295 -475 179 -63 223 -87 290 -154 95 -95 121
-163 150 -396 6 -49 36 -238 66 -420 30 -181 60 -359 66 -395 5 -36 14 -67 18
-70 4 -3 10 -16 11 -29 4 -24 29 -43 29 -21 0 25 49 60 85 60 19 0 35 5 35 10
0 6 5 10 11 10 8 0 7 -5 -1 -15 -23 -28 -1 -29 25 -1 24 26 33 42 18 33 -5 -3
-14 1 -21 9 -14 15 -10 17 26 14 34 -2 30 48 -8 91 -47 54 -35 53 15 0 l46
-49 -20 -33 c-42 -74 -56 -139 -55 -254 1 -100 4 -120 39 -220 43 -125 62
-167 116 -247 117 -171 304 -309 482 -354 65 -16 109 -47 91 -63 -5 -4 -38
-15 -74 -25 -173 -46 -443 -168 -580 -261 -45 -31 -84 -55 -85 -53 -4 4 -30
175 -90 588 -53 364 -87 588 -154 1010 -82 511 -90 568 -110 718 -22 170 -51
238 -132 319 -69 69 -129 99 -349 176 -304 107 -1716 631 -1892 702 -17 7 -18
-7 -18 -213 l0 -221 32 -10 c18 -5 163 -57 322 -115 295 -108 339 -130 352
-182 8 -32 -12 -64 -40 -64 -13 0 -91 23 -173 51 -81 27 -184 62 -227 76 -44
13 -119 40 -168 59 -50 19 -92 34 -94 34 -2 0 -4 -29 -4 -64 l0 -64 127 -43
c146 -51 183 -78 183 -132 0 -39 -21 -67 -50 -67 -10 0 -70 18 -132 40 -62 22
-116 40 -120 40 -5 0 -8 -31 -8 -69 l0 -69 32 -7 c79 -17 106 -35 123 -80 31
-79 -16 -114 -105 -77 l-50 21 0 -205 c0 -155 3 -206 12 -209 7 -2 58 -18 114
-35 106 -32 140 -54 150 -96 8 -30 -12 -71 -36 -79 -10 -3 -65 8 -122 25 -58
16 -108 30 -112 30 -3 0 -6 -164 -6 -365 l0 -366 27 -23 c36 -31 36 -81 0
-112 l-27 -23 0 -326 c0 -273 2 -325 14 -325 27 0 66 -59 66 -100 0 -30 -6
-43 -31 -64 -17 -14 -35 -26 -40 -26 -5 0 -9 -65 -9 -149 0 -134 2 -150 17
-155 10 -3 223 -33 473 -66 250 -33 516 -69 590 -80 209 -30 280 -37 280 -28
0 4 -4 8 -10 8 -5 0 -10 14 -10 30 0 17 5 30 10 30 6 0 10 9 10 20 0 11 5 20
10 20 6 0 10 9 10 20 0 11 5 20 10 20 6 0 10 7 10 15 0 9 7 30 16 47 l16 31
-31 -5 c-16 -2 -28 -1 -25 4 3 4 -2 8 -11 8 -9 0 -30 13 -46 29 -22 23 -29 39
-29 69 0 58 29 74 118 66 38 -4 72 -3 75 2 5 8 -25 12 -125 16 -51 3 -48 15 5
23 86 13 95 16 102 38 4 14 8 17 12 9 4 -9 8 -10 18 -2 10 8 15 6 20 -9 3 -12
11 -21 17 -21 6 0 5 6 -2 15 -10 12 -10 19 -1 28 9 9 14 9 22 -3 8 -11 12 -12
16 -3 3 10 10 10 24 2 16 -8 20 -7 18 3 -1 7 -1 20 0 28 1 12 3 12 9 2 7 -10
14 -8 34 8 31 24 38 25 38 6 0 -21 21 -31 30 -16 5 7 6 20 3 28 -5 11 -1 11
20 -3 15 -9 27 -13 27 -8 0 5 10 10 23 10 12 1 33 5 45 8 17 4 22 2 16 -6 -4
-7 -3 -9 4 -6 5 4 8 17 5 28 -6 20 -3 21 36 17 22 -2 41 0 41 4 0 5 9 8 20 8
11 0 23 6 26 13 2 7 23 14 47 16 23 1 44 6 45 12 2 5 21 9 42 9 38 0 58 -19
44 -42 -4 -6 2 -8 12 -6 36 6 36 -1 -55 633 -80 555 -95 651 -202 1330 -43
271 -44 285 -27 285 8 0 22 -8 30 -17 15 -17 70 -302 118 -608 59 -379 92
-531 110 -520 5 3 25 -5 46 -17 39 -23 74 -31 74 -16 0 4 7 8 16 8 10 0 14 6
11 15 -4 8 -2 17 3 20 6 4 11 -6 12 -22 0 -15 2 -32 3 -38 1 -5 7 -41 13 -80
40 -225 67 -397 112 -700 74 -501 101 -660 117 -687 2 -4 31 13 64 37 76 56
315 203 400 245 123 63 415 164 506 177 l42 6 10 -42 c6 -22 16 -59 22 -82 6
-23 9 -42 7 -44 -2 -1 -48 -17 -103 -35 -177 -59 -401 -167 -491 -238 l-32
-25 33 -46 c32 -46 65 -104 65 -117 0 -3 -21 17 -46 45 -53 59 -166 146 -209
161 -34 12 -32 11 53 -55 37 -28 88 -84 126 -134 85 -116 85 -117 3 -36 -40
38 -85 76 -99 84 -27 14 -31 12 -115 -44 -136 -90 -441 -344 -608 -506 l-150
-146 -140 5 c-155 5 -250 -11 -363 -63 -30 -14 -57 -23 -59 -21 -4 4 62 59
117 98 l25 18 -27 -10 c-101 -35 -252 -131 -338 -214 -48 -47 -63 -56 -93 -56
-52 0 -987 79 -1115 95 l-42 5 0 -209 0 -208 107 -6 c58 -4 162 -7 230 -7
l124 0 -3 -102 -3 -103 -227 -3 c-194 -2 -228 -5 -228 -17 0 -13 35 -15 239
-15 159 0 242 -4 246 -11 4 -6 5 -12 4 -14 -2 -2 -113 -6 -246 -10 l-243 -8 0
-81 0 -82 73 -71 c85 -83 156 -138 206 -159 31 -13 66 -13 261 -4 124 6 239
13 257 15 25 5 35 1 47 -17 12 -17 13 -24 3 -29 -13 -7 -345 -24 -477 -24
-113 0 -157 22 -277 139 l-93 89 0 -266 0 -265 69 -21 c38 -12 74 -21 80 -21
22 0 10 -18 -16 -25 -112 -27 -133 -36 -133 -60 l0 -23 77 24 c94 29 93 29 93
5 0 -19 -33 -35 -127 -62 -37 -10 -43 -16 -43 -39 l0 -27 67 18 c95 27 95 27
91 -28 l-3 -47 -75 -27 c-73 -26 -75 -28 -78 -63 -2 -20 -1 -36 2 -36 10 0
462 162 626 225 433 165 471 178 555 183 51 2 107 -2 155 -11 41 -9 203 -39
360 -67 324 -58 353 -64 375 -87 15 -14 14 -18 -10 -43 -15 -16 -52 -39 -83
-53 -83 -35 -321 -135 -527 -221 -99 -41 -211 -88 -250 -105 -84 -36 -544
-227 -740 -306 -124 -50 -148 -57 -210 -57 -41 0 -108 10 -163 24 l-92 24 0
-443 0 -443 5120 0 5120 0 0 715 c0 704 0 714 -20 725 -16 8 -20 21 -20 57 0
40 2 45 20 40 17 -4 20 0 20 28 0 24 -5 34 -20 38 -18 5 -20 14 -20 75 0 62 2
71 20 77 19 6 20 15 20 215 l0 209 -35 -24 c-69 -46 -84 -47 -362 -31 -143 9
-274 16 -291 16 -21 0 -32 5 -32 14 0 36 0 36 481 10 l137 -7 51 48 51 48 0
157 c0 152 -1 158 -20 153 -21 -6 -322 15 -329 23 -3 2 0 9 6 15 7 7 70 10
177 9 92 0 166 3 166 8 0 11 -121 22 -235 22 l-82 0 1 105 1 105 158 0 157 0
0 211 0 211 -27 -6 c-58 -11 -250 -28 -944 -83 l-77 -6 -69 60 c-91 78 -139
110 -248 167 -101 52 -131 60 -64 17 24 -15 62 -45 84 -64 l40 -36 -92 39
c-133 57 -220 72 -385 68 l-137 -3 -143 140 c-166 163 -245 233 -419 373 -135
108 -243 182 -266 182 -20 0 -89 -46 -139 -92 -24 -22 -44 -37 -44 -33 0 11
130 165 164 196 17 14 45 38 61 53 l30 28 -52 -28 c-29 -15 -87 -59 -129 -97
-67 -63 -75 -67 -59 -37 10 19 26 47 37 62 29 41 16 70 -50 111 -105 65 -260
135 -404 182 -79 26 -144 49 -146 50 -1 1 8 39 20 83 17 61 27 82 40 82 9 0
68 -13 130 -29 244 -63 541 -207 768 -372 52 -38 98 -65 103 -60 15 15 64 280
117 640 17 113 32 206 34 208 2 2 3 -23 3 -57 0 -68 5 -79 28 -56 19 19 71 21
78 4 2 -7 8 5 12 27 4 22 14 52 21 66 7 15 11 29 8 32 -8 8 77 24 103 19 23
-4 33 -28 33 -84 l0 -36 59 -7 c51 -6 66 -3 107 17 26 13 52 32 58 43 6 11 12
22 13 24 2 2 10 -2 20 -10 9 -8 14 -9 10 -3 -4 7 2 14 14 17 15 4 19 2 15 -8
-3 -9 0 -12 9 -9 7 3 16 12 19 20 4 10 13 13 26 9 15 -5 24 1 37 23 14 24 19
27 28 16 7 -9 15 -11 25 -4 13 9 13 11 0 21 -13 9 -13 10 0 6 19 -5 18 -9 -15
-247 -33 -239 -98 -738 -118 -913 -3 -24 -1 -27 27 -26 69 3 712 83 876 110
36 6 99 14 140 19 41 5 196 25 343 45 147 19 272 35 277 35 6 0 10 406 10
1121 0 1060 -1 1121 -17 1114 -23 -8 -436 -124 -713 -200 -74 -20 -182 -50
-239 -66 -114 -32 -141 -35 -159 -17 -21 21 -15 82 11 106 22 20 278 102 542
172 66 18 215 59 330 92 116 33 218 62 227 64 17 5 18 25 18 235 0 126 -3 229
-7 229 -5 0 -120 -37 -258 -82 -151 -49 -268 -82 -295 -82 -43 -1 -45 0 -48
29 -2 19 6 44 20 65 22 33 38 40 303 130 l280 95 3 68 c2 37 0 67 -3 67 -4 0
-155 -49 -337 -110 -182 -60 -335 -110 -340 -110 -5 0 -8 30 -6 67 l3 67 250
88 c138 48 292 103 342 120 l93 33 0 222 0 223 -27 -11 c-136 -52 -699 -261
-968 -359 -88 -32 -241 -89 -340 -125 -99 -37 -284 -104 -410 -150 -127 -45
-246 -90 -265 -100 -126 -64 -216 -202 -234 -360 -7 -57 -85 -571 -107 -700
-17 -105 -49 -317 -65 -430 -8 -60 -28 -189 -44 -285 -34 -200 -58 -366 -104
-702 -17 -130 -35 -240 -38 -244 -4 -3 -29 9 -55 28 -132 96 -349 197 -571
268 -131 42 -131 42 -116 64 10 17 38 29 101 46 274 72 483 285 584 595 28 87
32 114 33 210 1 134 -16 196 -78 289 -24 36 -43 66 -42 66 8 0 45 -38 41 -42
-10 -10 56 -58 80 -58 18 0 25 -5 25 -20 0 -13 7 -20 20 -20 11 0 20 5 20 11
0 8 21 10 65 7 49 -3 65 -1 65 9 0 20 20 16 21 -4 1 -20 29 135 59 327 10 69
29 177 40 240 12 63 32 197 45 297 25 199 42 244 123 345 58 72 123 109 328
182 104 38 338 124 519 191 182 67 413 152 515 190 365 134 606 223 693 256
l87 33 0 1148 0 1148 -5113 0 c-2813 0 -5117 -3 -5120 -7z m5442 -1019 c271
-39 527 -136 721 -272 83 -59 254 -230 307 -307 108 -160 178 -376 188 -580
l5 -100 -19 71 c-26 97 -67 183 -135 286 -119 180 -237 295 -458 444 -56 37
-111 77 -124 89 -46 42 -81 65 -69 45 5 -8 -4 -7 -26 5 -63 33 -70 36 -79 30
-6 -4 -10 -2 -10 3 0 14 -38 22 -44 8 -2 -6 -5 -4 -5 5 -1 18 -33 29 -171 58
-373 79 -748 48 -1280 -106 -304 -88 -354 -102 -429 -114 -35 -5 -70 -16 -78
-24 -27 -28 -349 -13 -379 18 -2 2 35 7 84 10 120 9 245 48 517 162 127 53
264 109 305 125 186 69 428 129 600 149 132 15 462 12 579 -5z m-2892 -353
c39 -111 97 -190 164 -224 30 -16 81 -32 112 -36 67 -9 80 -17 41 -27 -54 -13
-141 -63 -172 -98 -61 -70 -72 -106 -81 -266 l-6 -115 -29 90 c-71 224 -161
313 -316 315 l-65 1 72 34 c96 45 135 75 165 132 36 67 48 134 49 276 l1 122
19 -65 c11 -36 32 -98 46 -139z m5314 -87 c27 -72 79 -123 149 -149 l55 -19
-57 -8 c-103 -13 -143 -49 -189 -172 -26 -66 -28 -64 -49 38 -16 80 -69 137
-154 168 l-61 22 42 8 c63 10 120 44 148 87 26 43 65 149 65 180 0 11 3 28 7
38 5 11 11 -10 16 -60 4 -42 17 -102 28 -133z m-5936 -140 c56 -152 127 -228
240 -254 80 -19 83 -21 39 -35 -119 -36 -180 -121 -192 -266 l-7 -84 -23 60
c-54 144 -146 228 -265 241 l-60 7 48 18 c56 21 118 77 146 132 22 43 38 158
31 226 -6 62 10 45 43 -45z m7674 36 c12 -33 23 -46 48 -54 47 -16 49 -23 9
-40 -28 -12 -42 -26 -57 -61 -23 -53 -39 -54 -52 -4 -12 46 -22 57 -68 71 -45
13 -43 19 14 33 38 9 42 13 55 58 7 27 18 47 24 45 6 -2 18 -24 27 -48z
m-2463 -49 c122 -23 244 -91 339 -188 31 -31 54 -58 52 -60 -3 -2 -31 12 -64
32 -165 98 -405 133 -556 80 -65 -23 -149 -102 -184 -173 l-28 -57 -9 63 c-11
80 2 125 53 183 88 100 247 148 397 120z m-2766 -65 c-52 -13 -158 -38 -235
-56 -237 -55 -491 -150 -790 -295 -71 -34 -146 -70 -165 -79 -19 -8 -64 -34
-100 -57 -54 -34 -61 -36 -40 -14 46 50 204 173 295 230 123 78 331 178 442
214 179 58 314 78 533 79 l155 1 -95 -23z m4585 -146 c3 -5 1 -10 -4 -10 -6 0
-11 5 -11 10 0 6 2 10 4 10 3 0 8 -4 11 -10z m-5 -40 c0 -5 -2 -10 -4 -10 -3
0 -8 5 -11 10 -3 6 -1 10 4 10 6 0 11 -4 11 -10z m10 -34 c0 -3 -4 -8 -10 -11
-5 -3 -10 -1 -10 4 0 6 5 11 10 11 6 0 10 -2 10 -4z m0 -30 c0 -3 -4 -8 -10
-11 -5 -3 -10 -1 -10 4 0 6 5 11 10 11 6 0 10 -2 10 -4z m-8149 -53 c13 -41
19 -48 57 -61 41 -13 49 -32 14 -32 -31 0 -61 -30 -72 -70 -14 -53 -32 -50
-50 8 -13 42 -20 49 -57 62 -51 17 -54 25 -11 34 36 7 68 32 68 53 0 19 19 53
29 53 4 0 14 -21 22 -47z m529 17 c0 -5 -2 -10 -4 -10 -3 0 -8 5 -11 10 -3 6
-1 10 4 10 6 0 11 -4 11 -10z m7223 -263 c30 -94 80 -142 179 -171 l43 -12
-50 -14 c-138 -37 -196 -102 -233 -262 -17 -70 -32 -89 -32 -40 0 51 -38 180
-66 221 -32 50 -105 99 -156 108 -47 7 -60 23 -20 23 53 0 124 32 168 75 45
45 69 99 112 255 l27 94 7 -114 c3 -63 13 -137 21 -163z m397 259 c0 -11 -19
-15 -25 -6 -3 5 1 10 9 10 9 0 16 -2 16 -4z m-7620 -26 c0 -5 -5 -10 -11 -10
-5 0 -7 5 -4 10 3 6 8 10 11 10 2 0 4 -4 4 -10z m7615 -10 c-3 -5 -11 -10 -16
-10 -6 0 -7 5 -4 10 3 6 11 10 16 10 6 0 7 -4 4 -10z m790 -10 c10 -11 18 -34
18 -52 0 -48 -42 -79 -163 -117 -58 -18 -182 -57 -275 -87 -94 -30 -184 -54
-202 -54 -45 0 -66 25 -59 69 9 56 48 83 182 125 65 21 182 60 259 86 157 54
212 61 240 30z m-5895 -10 c0 -5 -17 -10 -37 -10 -21 -1 -72 -9 -113 -19 l-75
-19 200 -2 c110 -1 225 -5 255 -9 l55 -7 -80 -8 c-137 -13 -347 -45 -426 -65
-224 -57 -615 -251 -774 -385 -27 -23 -75 -57 -105 -76 -30 -19 -83 -61 -117
-94 -35 -32 -63 -56 -63 -52 0 17 74 151 131 236 94 141 222 264 341 329 151
82 385 158 555 180 98 12 253 13 253 1z m-2510 -20 c0 -11 -4 -20 -9 -20 -6 0
-9 9 -8 20 1 11 5 20 9 20 4 0 8 -9 8 -20z m7609 -1 c-16 -10 -23 -4 -14 10 3
6 11 8 17 5 6 -4 5 -9 -3 -15z m1 -29 c0 -5 -4 -10 -10 -10 -5 0 -10 5 -10 10
0 6 5 10 10 10 6 0 10 -4 10 -10z m-7609 -42 c0 -24 2 -164 5 -311 4 -253 3
-268 -13 -265 -16 3 -18 18 -18 171 0 102 4 168 10 170 6 2 4 11 -4 20 -7 10
-10 17 -5 17 5 0 8 54 8 120 -1 66 2 120 7 120 5 0 9 -19 10 -42z m7614 12 c3
-5 -1 -10 -10 -10 -9 0 -13 5 -10 10 3 6 8 10 10 10 2 0 7 -4 10 -10z m-1 -59
c1 -17 -2 -31 -7 -31 -4 0 -5 -6 0 -12 4 -7 8 -56 10 -108 1 -52 4 -164 7
-247 2 -84 0 -153 -4 -153 -5 0 -16 -3 -24 -6 -15 -6 -16 20 -10 282 3 159 8
295 10 303 7 21 16 7 18 -28z m-1734 -57 c152 -73 266 -187 352 -351 102 -192
144 -385 135 -617 -6 -172 -20 -227 -94 -376 -44 -88 -72 -129 -121 -180 -48
-49 -59 -56 -43 -30 132 214 198 485 171 698 -37 294 -234 603 -490 767 -71
46 -185 94 -222 95 -10 0 -18 4 -18 9 0 20 59 30 150 28 89 -2 102 -5 180 -43z
m-1575 -104 c-23 -9 -13 -15 47 -25 42 -7 94 -31 81 -37 -4 -3 -2 -3 6 -1 7 2
29 0 49 -3 l34 -7 -38 -18 c-22 -10 -48 -19 -59 -20 -17 -1 -16 -2 5 -9 14 -5
18 -8 9 -9 -9 -1 -97 -26 -195 -57 -329 -104 -502 -147 -749 -190 -143 -25
-185 -28 -395 -29 -239 0 -380 11 -330 26 24 7 24 7 3 8 -21 1 -23 6 -23 53 0
52 19 88 47 88 17 0 17 20 1 21 -7 1 5 5 27 10 22 4 115 8 206 8 283 1 490 30
922 127 314 71 317 72 347 72 23 1 23 0 5 -8z m443 -87 c-10 -2 -28 -2 -40 0
-13 2 -5 4 17 4 22 1 32 -1 23 -4z m89 1 c-3 -3 -12 -4 -19 -1 -8 3 -5 6 6 6
11 1 17 -2 13 -5z m-350 -30 c-3 -3 -12 -4 -19 -1 -8 3 -5 6 6 6 11 1 17 -2
13 -5z m1343 -91 c71 -32 165 -109 216 -176 106 -139 148 -343 110 -539 -16
-81 -48 -174 -71 -204 -13 -17 -13 -14 0 24 39 114 44 370 11 492 -16 56 -73
177 -88 186 -5 3 7 -25 26 -63 19 -37 42 -103 50 -145 21 -100 19 -117 -3 -48
-70 217 -301 417 -525 455 -21 3 -35 9 -31 13 35 36 229 39 305 5z m-915 -19
c96 -26 98 -33 9 -34 -54 0 -114 -8 -175 -24 -172 -45 -288 -101 -642 -308
-290 -169 -475 -261 -657 -323 -269 -92 -513 -139 -895 -170 -242 -20 -342
-37 -460 -76 -200 -67 -345 -153 -483 -288 l-80 -77 19 44 c11 25 33 65 49 89
17 24 30 46 30 49 0 6 64 76 145 159 212 216 454 323 980 431 287 59 617 141
785 196 85 28 289 104 453 169 303 121 388 149 512 168 39 6 81 13 95 15 51 9
257 -4 315 -20z m783 -168 c68 -34 128 -89 154 -140 22 -43 48 -191 47 -266
l0 -45 -13 45 c-14 55 -44 104 -109 183 -99 118 -229 187 -356 187 l-56 0 33
20 c90 55 211 61 300 16z m-3753 -14 c-6 -5 -41 -29 -80 -55 -210 -138 -400
-384 -480 -622 -23 -68 -26 -96 -31 -283 -3 -114 -7 -209 -9 -210 -6 -7 -44
125 -60 209 -29 156 -14 382 36 545 40 128 138 302 210 371 28 26 47 34 99 41
83 12 327 15 315 4z m-1706 -556 c53 -48 47 -116 -9 -116 -32 0 -587 180 -659
213 -53 25 -78 71 -60 111 7 14 19 27 28 28 23 5 678 -216 700 -236z m7414 -1
c-2 -37 -4 -70 -7 -72 -6 -6 -95 -39 -311 -115 -271 -95 -281 -98 -294 -85
-28 28 3 122 48 147 12 6 103 39 203 74 101 35 219 77 263 94 44 16 85 28 90
27 6 -1 9 -31 8 -70z m-2651 -53 c41 -20 81 -49 104 -75 47 -54 91 -152 104
-230 11 -71 12 -252 2 -312 -7 -38 -9 -40 -37 -35 -17 3 -66 5 -111 4 -71 0
-89 -4 -155 -35 -41 -20 -119 -65 -174 -101 -252 -163 -385 -238 -488 -272
-65 -22 -91 -21 -82 2 4 9 10 27 12 40 5 19 1 22 -24 22 -41 0 -98 -43 -130
-97 -21 -37 -28 -60 -28 -105 0 -63 19 -97 72 -134 30 -20 30 -21 15 -50 -8
-16 -16 -30 -17 -32 -2 -2 -25 8 -52 21 -114 57 -228 60 -333 7 -33 -16 -61
-30 -64 -30 -2 0 -9 14 -15 31 -10 29 -8 35 23 70 19 21 39 53 44 73 21 76
-32 184 -114 232 -42 25 -47 25 -62 11 -13 -14 -14 -21 -3 -43 6 -15 9 -29 6
-32 -12 -13 -123 24 -218 72 -56 28 -181 102 -278 163 -210 133 -259 158 -341
179 -59 15 -140 14 -182 -2 -14 -5 -16 4 -16 65 0 49 4 73 13 76 6 2 140 8
297 14 239 8 323 15 525 45 242 36 291 41 245 25 -16 -5 -3 -6 40 -3 71 6 257
52 361 89 94 34 282 127 316 157 20 18 246 132 343 173 100 43 157 55 250 52
72 -3 95 -8 152 -35z m3138 -21 c34 -64 -10 -108 -158 -156 -108 -35 -114 -36
-133 -19 -23 21 -24 45 -4 84 19 36 37 46 145 81 104 34 136 36 150 10z
m-9080 -71 c128 -45 172 -87 150 -144 -8 -21 -16 -26 -44 -26 -48 0 -205 58
-233 86 -27 27 -30 70 -6 96 22 24 34 23 133 -12z m1286 -141 c112 -36 144
-58 144 -103 0 -39 -15 -56 -51 -56 -41 0 -246 65 -268 84 -28 26 -35 64 -16
93 15 22 21 24 58 18 23 -4 83 -20 133 -36z m8025 10 c36 -36 4 -113 -59 -138
-66 -26 -462 -141 -486 -141 -39 0 -55 40 -33 85 9 19 27 40 39 48 13 8 100
38 193 67 94 28 202 62 240 75 87 29 81 29 106 4z m-1033 -70 c2 -15 -4 -31
-15 -41 -25 -22 -276 -103 -296 -95 -20 8 -22 46 -4 70 19 26 225 97 272 94
35 -2 40 -5 43 -28z m-98 -218 c18 -35 -23 -66 -140 -105 -111 -37 -130 -36
-130 10 0 34 29 55 118 86 95 33 137 35 152 9z m-7184 -40 c77 -21 198 -53
269 -70 149 -36 200 -56 221 -85 22 -32 18 -73 -9 -91 -22 -14 -31 -13 -113
11 -49 14 -123 34 -164 44 -215 53 -357 93 -377 105 -45 30 -33 125 16 125 10
0 81 -18 157 -39z m-915 -122 c38 -40 38 -80 2 -109 -34 -27 -68 -20 -105 21
-29 31 -35 67 -18 100 8 14 21 19 51 19 33 0 47 -6 70 -31z m2692 -36 c2 -5 7
-25 11 -45 l7 -37 -34 6 c-41 6 -134 -19 -196 -53 -55 -30 -60 -30 -30 2 44
48 100 87 157 110 61 25 78 28 85 17z m5337 -48 c0 -33 -40 -61 -122 -86 -86
-25 -102 -23 -106 17 -4 41 17 57 113 87 88 28 115 23 115 -18z m-1264 -18
c35 -4 72 -11 82 -16 12 -8 8 -9 -18 -3 -19 4 -60 7 -90 7 l-55 0 4 35 c5 30
6 32 9 9 3 -24 7 -27 68 -32z m-4555 -12 c7 -13 3 -12 -10 5 -11 14 -21 30
-21 35 0 11 14 -7 31 -40z m4712 -36 c24 -12 50 -31 57 -43 12 -20 12 -20 -6
-4 -10 9 -39 28 -64 42 -55 31 -47 34 13 5z m-4197 -11 c4 -5 13 -45 20 -90 7
-46 16 -102 19 -126 l8 -42 -59 6 c-33 4 -66 10 -74 15 -13 7 25 5 97 -5 12
-2 20 1 17 5 -3 5 -13 9 -22 9 -12 0 -13 3 -4 12 7 7 12 16 12 22 0 5 -8 -1
-19 -12 -22 -26 -31 -28 -31 -7 0 8 5 15 11 15 6 0 9 7 5 15 -3 8 -3 22 1 31
5 14 8 13 20 -7 13 -22 14 -19 8 30 -3 30 -8 58 -11 62 -6 10 -80 -8 -125 -31
-50 -26 -134 -111 -161 -164 -12 -22 -40 -93 -63 -156 -23 -63 -46 -114 -51
-113 -5 2 -10 46 -12 99 -6 201 69 357 202 421 43 20 63 23 128 21 42 -2 80
-6 84 -10z m4141 -7 c119 -55 193 -175 209 -342 12 -118 -14 -256 -31 -171
-33 158 -70 241 -149 328 -75 84 -128 118 -190 124 -47 5 -51 7 -48 30 1 14
10 31 19 38 26 19 141 15 190 -7z m-3756 -42 c-6 -17 -8 -35 -5 -40 3 -5 -19
-37 -49 -72 -100 -116 -162 -224 -208 -367 l-27 -85 -1 50 c-1 61 43 192 90
272 19 31 66 90 105 132 39 42 77 93 84 113 8 21 16 36 18 33 2 -2 -1 -18 -7
-36z m3265 -113 c102 -102 177 -267 188 -411 2 -38 2 -59 0 -45 -10 53 -48
158 -80 222 -40 83 -80 141 -156 229 -97 113 -64 116 48 5z m1674 54 c11 -21
3 -47 -23 -68 -8 -7 -60 -26 -117 -43 -99 -31 -104 -31 -117 -14 -37 52 -3 88
112 119 112 30 131 31 145 6z m1384 -81 c78 -61 -35 -190 -119 -135 -39 26
-34 70 14 117 44 44 67 48 105 18z m-8532 -33 c73 -19 223 -56 332 -82 220
-53 259 -71 264 -121 5 -48 -13 -73 -52 -73 -43 0 -678 155 -717 175 -34 18
-49 43 -49 82 0 64 35 67 222 19z m5763 -26 c-11 -5 -27 -9 -35 -9 -13 -1 -13
0 0 9 8 5 24 9 35 9 l20 0 -20 -9z m62 4 c-3 -3 -12 -4 -19 -1 -8 3 -5 6 6 6
11 1 17 -2 13 -5z m2251 -50 c41 -28 26 -101 -27 -128 -29 -16 -349 -96 -380
-96 -45 0 -56 71 -18 116 19 22 53 34 202 74 99 27 185 49 190 49 6 1 21 -6
33 -15z m-938 -34 c12 -22 3 -47 -24 -69 -18 -15 -189 -61 -228 -61 -38 0 -53
31 -34 69 13 24 27 32 93 49 149 39 178 41 193 12z m-8325 -21 c63 -55 40
-129 -40 -129 -53 0 -102 64 -89 116 13 52 76 59 129 13z m2045 11 c0 -5 -4
-10 -10 -10 -5 0 -10 5 -10 10 0 6 5 10 10 10 6 0 10 -4 10 -10z m2098 -28 c8
-5 -11 -13 -49 -20 -139 -26 -265 -115 -318 -225 -85 -176 -54 -345 87 -479
114 -107 225 -142 359 -114 117 24 185 66 242 149 66 98 90 212 67 329 -17 88
-23 102 -79 178 l-40 55 42 -40 c23 -22 58 -71 77 -110 93 -190 55 -426 -94
-590 -27 -29 -23 -26 16 10 63 60 129 158 154 229 15 43 17 46 17 21 0 -16 -3
-48 -8 -70 -5 -29 -4 -44 5 -53 10 -9 15 -8 23 6 20 33 11 -8 -14 -64 -109
-246 -356 -387 -655 -371 -120 6 -209 30 -315 85 -313 164 -479 523 -381 825
15 49 30 87 32 84 2 -2 -4 -41 -12 -88 -11 -53 -15 -111 -11 -159 5 -77 55
-260 80 -294 8 -11 -1 27 -20 83 -30 91 -35 116 -35 210 -1 126 17 209 68 321
29 63 40 78 50 69 11 -9 9 -20 -13 -62 -68 -135 -90 -293 -59 -435 40 -190
184 -371 363 -457 81 -39 95 -29 22 15 -36 22 -93 69 -127 104 -61 66 -140
191 -128 204 4 3 10 1 14 -5 4 -6 7 26 8 70 1 106 15 154 71 252 57 98 99 149
182 215 72 58 123 86 201 111 57 19 156 25 178 11z m1843 -8 c133 -39 253
-120 331 -223 96 -127 138 -242 138 -379 0 -69 -4 -91 -26 -134 -34 -67 -123
-160 -196 -205 -32 -20 -56 -38 -54 -40 2 -3 42 15 88 38 208 108 348 332 348
559 0 57 -17 165 -35 221 -10 30 9 22 22 -8 18 -43 44 -151 53 -223 8 -54 8
-45 6 55 -4 153 4 181 29 94 68 -240 -44 -558 -259 -731 -78 -62 -193 -121
-292 -150 -104 -30 -306 -32 -399 -4 -212 64 -362 206 -430 407 -28 81 -29 89
-15 89 6 0 20 -21 31 -47 29 -67 120 -200 174 -253 59 -58 58 -46 -1 16 -97
100 -158 224 -169 349 l-6 60 21 -75 c27 -100 92 -211 160 -273 53 -49 137
-107 173 -120 33 -12 17 2 -39 34 -119 68 -217 202 -244 336 -7 31 -10 103 -8
162 3 97 6 111 36 167 18 33 53 83 78 110 l44 49 -39 -58 c-69 -102 -99 -225
-81 -328 33 -181 182 -316 362 -327 137 -8 240 31 329 125 185 195 144 503
-86 637 -51 30 -190 69 -219 62 -11 -3 -15 -1 -10 4 25 23 114 25 185 4z
m-5631 -39 c176 -42 441 -104 609 -142 141 -32 181 -57 181 -112 0 -32 -29
-71 -54 -71 -7 0 -116 24 -242 54 -689 162 -650 151 -691 189 -42 38 -20 117
31 117 12 0 86 -16 166 -35z m9382 -52 c8 -10 17 -25 20 -34 9 -25 -18 -77
-49 -92 -29 -15 -50 -20 -313 -81 -555 -127 -593 -134 -614 -117 -22 19 -20
73 4 104 25 32 64 44 320 102 113 26 284 66 380 90 197 49 230 53 252 28z
m-6168 -58 c8 -21 -21 -154 -40 -182 -17 -26 -18 -27 -45 -12 -16 8 -19 17
-14 42 13 68 29 123 43 145 16 25 47 29 56 7z m672 -108 c69 -63 54 -160 -31
-198 -70 -31 -130 -7 -161 66 -17 42 -3 98 36 137 23 23 37 28 74 28 38 0 53
-6 82 -33z m1585 18 c37 -19 69 -70 69 -109 0 -68 -78 -134 -144 -122 -38 7
-92 59 -101 98 -16 66 45 148 111 148 19 0 48 -7 65 -15z m-5622 -34 c131 -31
169 -44 189 -64 32 -32 34 -80 4 -110 -24 -24 -8 -25 -262 26 -125 25 -151 36
-174 69 -20 29 -20 82 0 102 23 23 61 20 243 -23z m1292 -26 c85 -19 163 -37
175 -40 58 -13 94 -94 57 -127 -32 -27 -50 -27 -160 -2 -59 14 -148 34 -198
45 -97 21 -135 49 -135 97 0 74 38 77 261 27z m2322 -89 c-5 -75 -3 -89 20
-139 101 -221 380 -283 539 -120 20 21 51 63 67 93 27 49 31 52 31 27 0 -39
-44 -121 -88 -165 -21 -21 -60 -49 -87 -62 -44 -22 -64 -25 -155 -25 -101 0
-108 1 -168 34 -71 39 -129 99 -163 169 -27 56 -33 186 -10 240 7 17 15 32 16
32 2 0 0 -38 -2 -84z m2352 -56 c0 -69 -4 -94 -23 -132 -37 -76 -103 -141
-174 -174 -56 -26 -74 -29 -158 -29 -109 0 -160 18 -228 80 -42 37 -92 124
-92 158 0 15 7 10 26 -19 54 -79 74 -100 126 -131 170 -102 380 -36 470 146
19 38 23 63 23 143 0 91 1 95 15 70 10 -18 15 -56 15 -112z m951 106 c-38 -51
-32 -53 20 -7 54 47 64 50 63 19 0 -22 -1 -22 -9 -3 -6 15 -8 10 -8 -20 0 -59
-64 -162 -156 -248 -46 -43 -142 -100 -215 -128 l-48 -18 33 77 c19 42 34 82
34 89 0 6 33 33 73 60 39 26 108 85 152 130 44 45 82 82 84 82 2 1 -8 -14 -23
-33z m949 -2 c46 -18 33 -98 -20 -122 -49 -23 -87 -14 -99 24 -18 59 57 121
119 98z m1749 -20 c44 -43 2 -132 -71 -150 -43 -11 -77 14 -81 59 -3 32 2 43
31 72 39 39 93 48 121 19z m-6869 -73 c54 -51 116 -97 148 -112 20 -9 30 -25
43 -68 9 -31 23 -69 31 -84 8 -16 12 -32 8 -35 -3 -4 -45 13 -93 38 -63 32
-107 64 -161 117 -41 40 -71 76 -68 79 4 4 0 16 -8 26 -7 11 -11 26 -8 34 3 8
0 27 -5 43 -6 16 -8 32 -5 34 8 9 75 -32 118 -72z m1060 -16 c14 -13 25 -35
25 -49 0 -31 -45 -68 -78 -64 -34 4 -66 49 -58 81 14 59 69 75 111 32z m1627
-14 c29 -26 32 -32 23 -57 -14 -39 -57 -60 -94 -44 -25 10 -51 46 -51 69 0 5
9 20 21 35 27 34 61 33 101 -3z m-561 -94 c9 -7 21 -41 28 -82 15 -88 36 -154
72 -227 38 -75 114 -192 147 -226 15 -15 29 -32 32 -37 26 -51 298 -204 309
-174 2 8 6 7 11 -1 11 -17 139 -39 235 -39 73 -1 134 6 222 25 l32 6 -19 -71
c-50 -196 -174 -354 -410 -521 -149 -105 -371 -227 -502 -275 -43 -15 -78 -31
-78 -36 0 -14 145 41 260 100 236 120 280 146 280 159 0 7 5 10 10 7 6 -3 10
-1 10 5 0 6 4 9 9 5 5 -3 34 9 63 26 29 18 73 43 98 57 88 48 202 137 274 213
89 92 143 182 209 348 28 68 53 119 55 113 4 -13 -30 -151 -58 -229 -47 -133
-140 -261 -263 -360 -177 -143 -657 -411 -843 -471 -310 -101 -519 -59 -966
193 -426 240 -565 359 -668 570 -44 88 -101 264 -100 305 1 21 36 -48 86 -169
24 -57 58 -129 76 -160 58 -96 213 -246 339 -326 9 -5 36 -23 60 -39 24 -16
53 -30 64 -30 11 -1 40 -12 65 -25 50 -26 47 -22 -25 34 -175 136 -283 257
-341 380 -35 76 -69 183 -61 192 3 3 37 -2 76 -11 257 -59 607 40 772 217 21
23 26 42 7 31 -7 -4 -8 -3 -4 4 4 7 14 12 22 12 8 0 14 5 14 11 0 6 12 25 26
42 69 82 157 318 154 414 0 26 4 33 22 37 76 17 180 18 199 3z m-4302 -37
c737 -143 1033 -201 1053 -209 54 -21 80 -93 45 -128 -21 -22 -54 -19 -232 16
-82 16 -224 44 -315 61 -91 17 -257 48 -370 70 -113 21 -234 44 -270 50 -69
12 -117 33 -137 59 -31 40 0 111 48 111 12 0 92 -14 178 -30z m7025 -86 c3 -8
2 -12 -4 -9 -6 3 -10 10 -10 16 0 14 7 11 14 -7z m1220 -166 c12 -35 0 -75
-29 -94 -25 -16 -203 -53 -256 -54 -39 0 -63 32 -55 73 11 60 43 79 174 103
128 24 149 20 166 -28z m-8914 -214 c83 -17 420 -78 490 -89 101 -15 119 -23
141 -67 25 -48 19 -81 -17 -105 -22 -14 -32 -15 -72 -5 -26 7 -114 23 -197 37
-246 42 -419 76 -437 86 -22 12 -48 61 -48 89 0 20 41 70 57 70 4 0 42 -7 83
-16z m9853 -82 c26 -23 23 -83 -7 -111 -32 -30 -46 -33 -406 -91 -173 -28
-382 -62 -465 -75 -243 -39 -353 -55 -387 -55 -66 0 -89 63 -43 119 29 34 33
35 300 76 94 15 332 55 530 90 470 83 440 80 478 47z m-5815 -740 c2 -8 -3
-10 -13 -6 -9 4 -13 9 -11 12 3 3 -2 12 -12 20 -15 12 -14 12 7 0 14 -8 27
-20 29 -26z m2175 -579 c-52 -108 -105 -210 -116 -227 -12 -17 -23 -33 -24
-35 -4 -6 -64 21 -61 28 19 40 286 431 294 431 1 0 -40 -88 -93 -197z m-2550
-132 c37 -56 67 -104 65 -106 -2 -1 -16 -7 -33 -12 l-30 -10 -97 196 c-54 107
-98 202 -98 211 0 8 28 -28 62 -80 34 -52 93 -142 131 -199z m-2054 115 c93
-20 180 -55 242 -98 55 -37 63 -53 22 -44 -259 57 -431 56 -616 -4 -83 -27
-136 -53 -291 -144 l-48 -29 16 29 c8 16 36 51 61 78 26 26 45 50 42 52 -8 9
-173 -96 -244 -155 -67 -57 -74 -60 -57 -31 33 58 178 193 260 242 82 49 185
90 289 114 73 17 219 12 324 -10z m6934 -10 c49 -15 112 -38 140 -52 105 -53
247 -165 298 -236 l19 -27 -32 16 c-18 9 -71 42 -118 73 -95 64 -149 94 -157
87 -2 -3 27 -40 67 -82 72 -78 84 -103 33 -68 -50 35 -162 94 -233 123 -216
89 -430 98 -663 28 -38 -11 -71 -18 -73 -15 -5 5 103 79 156 107 149 80 383
99 563 46z m-7953 -137 c91 -6 167 -13 169 -15 2 -2 -24 -36 -56 -76 -130
-159 -195 -291 -218 -440 -7 -47 -26 -49 -105 -12 -66 30 -105 65 -133 119
-27 53 -27 172 2 315 30 146 20 134 104 127 39 -4 146 -12 237 -18z m8918 -96
c34 -183 37 -231 18 -297 -21 -72 -73 -126 -150 -155 -94 -35 -100 -32 -114
48 -23 133 -112 301 -227 425 -25 27 -45 52 -45 56 0 6 336 36 441 39 l55 1
22 -117z m-6145 53 c135 -49 261 -239 357 -541 37 -116 63 -235 54 -244 -2 -2
-13 4 -24 14 -25 23 -110 31 -166 16 -23 -6 -58 -22 -78 -36 -20 -14 -40 -25
-44 -25 -4 0 -17 48 -30 108 -47 217 -141 456 -198 501 l-27 21 -44 -25 -44
-24 -49 38 c-27 22 -55 41 -62 43 -16 6 31 67 79 104 78 59 192 80 276 50z
m3204 -7 c41 -15 72 -36 106 -71 26 -28 47 -54 47 -58 0 -5 -9 -11 -20 -15
-11 -3 -41 -23 -68 -44 -48 -38 -48 -38 -71 -20 -48 39 -80 16 -129 -91 -41
-88 -115 -307 -138 -405 -10 -44 -19 -82 -21 -84 -2 -3 -24 6 -50 19 -63 31
-137 37 -203 15 -28 -9 -53 -15 -55 -13 -9 9 28 178 61 275 136 408 318 574
541 492z m-2594 -117 c114 -50 221 -197 308 -420 34 -88 73 -232 65 -240 -3
-3 -14 2 -25 12 -41 37 -154 32 -216 -10 -20 -13 -40 -24 -44 -24 -5 0 -19 28
-31 63 -33 89 -167 350 -208 403 -35 46 -46 50 -93 30 -13 -6 -24 8 -52 63
-39 76 -39 75 23 106 95 49 188 55 273 17z m2041 -2 c82 -31 85 -38 43 -118
-35 -64 -37 -67 -70 -64 -30 3 -39 -3 -76 -44 -63 -72 -179 -324 -205 -446
l-6 -27 -51 32 c-63 39 -166 50 -220 23 -18 -9 -34 -14 -37 -11 -3 2 12 58 32
122 71 222 196 439 293 507 84 58 186 67 297 26z m-4259 -41 l120 -34 -65 -7
c-84 -8 -165 -39 -248 -94 l-66 -45 -153 53 c-84 29 -153 56 -153 59 0 4 14
12 30 19 36 15 106 4 227 -36 42 -14 77 -23 80 -21 6 7 -86 44 -169 68 -43 13
-78 26 -78 30 0 9 81 36 125 43 17 2 75 3 130 2 80 -2 124 -9 220 -37z m6627
26 c38 -7 76 -18 85 -24 20 -11 28 -7 -132 -66 -103 -38 -158 -64 -139 -65 7
0 55 16 109 35 111 40 200 54 234 35 13 -6 19 -16 15 -20 -9 -9 -280 -100
-297 -100 -5 0 -26 13 -46 29 -60 47 -162 93 -235 105 l-69 12 92 28 c152 47
267 56 383 31z m-1419 -40 c74 -19 148 -57 277 -142 58 -38 121 -79 142 -91
l36 -23 99 40 c206 82 298 106 408 106 92 0 104 -2 155 -30 78 -42 178 -147
217 -226 31 -64 70 -195 61 -205 -7 -6 -397 -92 -498 -109 -100 -17 -210 -19
-261 -5 -53 15 -78 45 -139 167 -39 78 -70 124 -111 166 -31 31 -62 57 -68 57
-6 0 -26 14 -46 31 -24 22 -34 37 -30 49 4 13 -1 20 -14 25 -12 3 -25 4 -29 1
-5 -3 -33 6 -63 20 -40 19 -63 24 -89 19 -104 -19 -167 -121 -246 -397 -14
-51 -28 -95 -30 -97 -1 -1 -18 8 -36 22 -61 46 -101 60 -165 61 -37 1 -67 -4
-74 -11 -61 -61 -3 134 97 328 76 148 156 222 264 245 74 16 77 16 143 -1z
m-4005 -24 c124 -64 219 -206 301 -454 18 -54 31 -101 28 -103 -3 -3 -19 2
-36 10 -61 32 -158 13 -234 -46 -21 -17 -40 -28 -43 -25 -3 2 -16 45 -29 94
-52 191 -119 344 -165 380 -42 33 -164 -1 -220 -62 -14 -15 -59 -44 -100 -65
-119 -61 -153 -96 -214 -224 -61 -126 -92 -161 -157 -175 -50 -11 -182 0 -279
23 -30 7 -93 21 -140 31 -101 21 -272 64 -278 70 -10 10 32 143 65 209 45 86
140 183 219 222 42 20 76 29 133 32 91 5 145 -8 355 -84 174 -64 148 -68 311
40 207 137 247 154 358 155 56 1 78 -4 125 -28z m-1628 -113 c63 -21 121 -41
128 -43 10 -4 2 -20 -25 -54 -21 -27 -42 -56 -48 -65 -9 -14 -28 -11 -175 27
-91 23 -167 43 -169 44 -5 3 45 70 82 110 36 38 39 38 207 -19z m7333 -28 c33
-48 44 -71 35 -74 -74 -24 -291 -77 -303 -74 -8 2 -36 30 -63 63 l-48 60 141
47 c77 26 151 47 165 47 20 1 35 -13 73 -69z m-8374 -200 c6 0 11 -4 11 -10 0
-19 -56 -10 -77 13 -71 77 -64 120 7 47 27 -27 53 -50 59 -50z m9301 75 c0
-22 -70 -95 -91 -95 -11 0 -19 3 -19 7 0 6 101 103 107 103 2 0 3 -7 3 -15z
m-7005 -125 c30 -29 82 -126 73 -136 -2 -1 -19 18 -38 44 -63 84 -160 94 -261
26 -29 -19 -54 -33 -56 -30 -9 8 80 97 116 117 55 30 123 21 166 -21z m4700
19 c38 -19 110 -88 101 -96 -2 -3 -26 7 -52 21 -53 28 -79 32 -90 14 -4 -6 -3
-8 2 -5 6 3 26 -9 47 -26 l37 -32 -35 -135 c-19 -74 -45 -167 -56 -207 l-22
-72 -41 28 c-54 37 -108 54 -157 49 -22 -2 -39 1 -39 7 0 5 16 62 35 125 37
121 41 145 24 120 -15 -22 -1 44 23 105 44 114 129 153 223 104z m-4716 -83
c37 -19 53 -46 81 -131 12 -38 32 -88 43 -110 11 -22 23 -53 27 -70 4 -16 11
-37 14 -45 5 -13 -2 -16 -37 -18 -55 -2 -122 -26 -164 -58 -19 -14 -36 -24
-39 -21 -3 2 -16 51 -29 108 -20 87 -61 222 -90 291 -5 12 4 23 32 42 44 30
116 35 162 12z m-1407 -72 c66 -22 118 -44 118 -51 0 -7 -3 -13 -7 -13 -27 0
-313 106 -313 116 0 15 7 13 202 -52z m7638 41 c0 -11 -63 -35 -165 -63 -159
-43 -168 -45 -163 -31 2 6 53 24 113 40 61 15 128 35 150 43 42 15 65 19 65
11z m-4247 -192 c72 -50 111 -137 93 -208 l-7 -27 -49 46 c-52 49 -85 66 -126
66 -23 0 -24 2 -24 81 l0 82 36 -6 c20 -4 55 -19 77 -34z m202 16 c11 -5 88
-8 171 -6 170 2 159 9 118 -77 -13 -28 -24 -58 -24 -68 0 -17 -12 -18 -144
-18 l-144 0 -6 28 c-8 35 -64 132 -76 132 -6 0 -10 4 -10 9 0 10 26 9 36 -2
13 -12 24 -8 18 7 -6 16 21 13 61 -5z m552 -54 l0 -75 -39 0 c-62 0 -130 -42
-167 -105 -10 -17 -11 -12 -7 30 12 115 59 187 137 212 74 24 77 22 76 -62z
m1301 -121 c42 -9 80 -21 84 -27 13 -20 9 -76 -7 -107 -26 -51 -79 -64 -135
-35 -37 19 -60 63 -69 132 l-8 53 29 0 c16 0 64 -7 106 -16z m-3381 -7 c3 -3
5 -32 4 -64 0 -52 -3 -61 -31 -85 -44 -40 -110 -39 -151 1 -29 30 -34 53 -23
108 6 29 10 31 67 40 63 9 124 9 134 0z m3906 -38 c12 -7 34 -22 50 -35 l27
-23 -22 -22 c-13 -12 -17 -18 -9 -14 11 6 13 4 7 -11 -5 -10 -12 -33 -17 -51
-9 -30 -11 -31 -28 -16 -11 9 -18 21 -17 27 2 6 1 8 -1 4 -2 -4 -20 4 -40 17
-19 14 -50 27 -69 31 -19 3 -36 10 -39 14 -7 12 49 7 58 -5 6 -7 10 -6 14 3 7
17 26 15 20 -3 -5 -11 -1 -12 18 -5 13 5 34 7 46 5 18 -4 20 0 17 19 -4 19 -1
23 11 19 24 -9 -18 30 -49 44 -14 6 -19 12 -12 12 7 1 23 -4 35 -10z m-825
-76 c21 -47 15 -99 -14 -122 -70 -55 -162 -5 -188 102 l-6 27 67 1 c38 1 79 5
93 9 14 4 27 8 30 9 3 0 11 -11 18 -26z m-2746 2 c43 -4 80 -10 83 -14 6 -11
-33 -83 -57 -103 -29 -25 -98 -24 -132 3 -18 14 -26 30 -26 52 0 56 10 77 34
72 11 -2 56 -7 98 -10z m697 6 c19 -12 0 -79 -33 -118 -48 -56 -147 -24 -162
53 -3 17 -1 41 5 53 10 19 20 21 94 21 45 0 88 -4 96 -9z m1429 -43 c4 -62
-10 -85 -59 -99 -33 -10 -45 -10 -73 3 -35 17 -66 69 -66 112 0 25 2 25 83 29
45 2 89 3 97 2 11 0 16 -14 18 -47z m3357 19 c187 -52 318 -130 442 -260 86
-92 136 -179 154 -268 10 -50 9 -62 -9 -102 -50 -113 -256 -184 -458 -157
-172 23 -289 75 -376 168 -40 42 -134 172 -125 172 2 0 35 -25 73 -55 57 -46
87 -62 174 -90 l105 -34 158 7 c86 4 158 3 160 -1 4 -12 83 10 101 28 8 8 22
15 30 15 9 0 16 7 16 17 0 9 3 13 7 10 8 -9 83 70 83 87 0 16 -68 119 -109
166 l-31 34 -32 -31 c-18 -18 -60 -45 -93 -60 -58 -27 -66 -28 -215 -28 -190
0 -261 18 -428 106 -148 78 -241 109 -329 109 -37 0 -84 -4 -102 -10 -45 -13
-51 -5 -20 25 65 65 252 145 337 145 48 0 121 -35 234 -110 78 -53 95 -60 138
-60 109 0 48 78 -118 151 -56 24 -102 48 -102 53 0 18 242 -1 335 -27z m-6274
-47 c38 -21 18 -95 -37 -131 -46 -30 -81 -25 -120 18 -19 20 -34 42 -34 47 0
11 135 75 158 76 7 0 22 -5 33 -10z m4273 -19 c37 -10 75 -26 84 -34 14 -14
12 -19 -20 -51 -28 -28 -44 -36 -73 -36 -83 0 -150 133 -70 139 6 1 41 -8 79
-18z m-1915 -51 c24 -16 60 -34 80 -40 45 -12 122 -13 154 -1 21 8 29 5 53
-20 l28 -29 -560 0 c-557 0 -559 1 -534 20 20 15 35 18 70 14 54 -7 130 15
192 56 l43 28 215 1 215 1 44 -30z m-1199 5 c0 -12 -16 -15 -86 -15 -76 0 -85
2 -74 15 9 11 33 15 86 15 59 0 74 -3 74 -15z m2050 0 c11 -13 2 -15 -74 -15
-79 0 -97 5 -79 23 3 4 37 7 73 7 48 0 71 -4 80 -15z m543 -67 c15 -11 27 -22
27 -26 0 -4 -36 -8 -80 -9 l-81 -3 32 40 c34 43 38 43 102 -2z m-3175 -32 c-2
-1 -36 0 -76 2 -72 4 -73 4 -51 20 55 39 72 41 102 9 15 -16 26 -30 25 -31z
m-371 39 c31 -8 74 -15 95 -15 36 0 57 -13 39 -24 -5 -3 -58 -3 -119 1 l-110
6 10 23 c13 28 11 28 85 9z m994 -11 l22 -24 -148 0 c-146 0 -148 0 -130 20
14 15 33 20 94 22 42 2 90 4 108 4 22 2 38 -5 54 -22z m2867 1 c7 -14 12 -27
12 -28 0 -2 -179 -1 -197 1 -34 5 -5 20 65 34 106 21 107 21 120 -7z m-803 -5
c18 -20 17 -20 -125 -20 -142 0 -143 0 -125 20 16 18 31 20 125 20 94 0 109
-2 125 -20z m-3438 -141 c25 -8 71 -10 145 -5 94 6 109 4 115 -10 3 -9 -3 -24
-16 -37 -21 -21 -29 -22 -239 -22 -167 0 -226 -4 -257 -15 -39 -14 -34 -15
140 -21 226 -8 215 -7 215 -19 0 -5 -18 -21 -39 -36 l-39 -26 -234 3 c-239 3
-278 -2 -278 -36 0 -13 40 -15 274 -15 173 0 277 4 281 10 4 7 13 7 25 0 29
-15 536 -12 562 3 16 9 22 9 25 0 7 -18 554 -19 583 -1 15 10 22 10 32 0 9 -9
85 -12 298 -12 157 0 290 4 297 8 16 10 33 57 33 92 0 32 10 43 27 32 9 -5 9
-19 3 -47 -5 -22 -10 -50 -10 -62 l0 -23 345 0 c389 0 369 -5 341 77 -20 57
-20 53 3 53 14 0 20 -10 24 -40 3 -23 12 -52 21 -65 l16 -25 270 0 c267 0 269
0 285 23 l16 22 16 -22 c15 -23 16 -23 299 -23 178 0 285 4 289 10 4 6 13 7
23 2 24 -13 572 -13 572 -1 0 6 7 6 19 -1 12 -6 125 -10 296 -10 257 0 276 1
273 17 -2 10 -23 29 -48 42 -32 18 -41 20 -31 8 13 -16 -2 -17 -213 -17 l-226
0 -40 26 c-22 15 -40 30 -40 34 0 12 95 20 232 20 70 0 129 4 132 9 12 20
-146 34 -314 28 -183 -6 -194 -3 -203 46 l-4 28 96 -6 c116 -9 168 3 219 49
36 32 38 33 84 21 26 -7 68 -25 95 -40 26 -15 80 -44 118 -65 83 -44 355 -222
380 -250 9 -10 14 -24 10 -29 -4 -8 -903 -11 -3021 -11 -2512 0 -3014 2 -3014
13 0 8 35 39 78 69 83 60 308 208 316 208 2 0 55 31 117 69 l114 68 38 -43
c21 -24 54 -48 74 -55z m1995 61 c-2 -14 -7 -29 -12 -33 -12 -13 -441 4 -437
17 6 18 213 44 337 43 l115 -2 -3 -25z m481 9 c6 -9 7 -24 4 -33 -6 -14 -31
-16 -211 -16 -133 0 -207 4 -211 11 -4 5 -4 21 -1 35 l6 24 202 -2 c172 -3
202 -5 211 -19z m499 -3 c9 -4 19 -14 22 -22 4 -11 -7 -14 -57 -14 -34 0 -132
-3 -218 -7 -155 -6 -157 -6 -169 16 -23 45 -15 46 201 40 112 -3 212 -9 221
-13z m-2568 5 c4 -5 -8 -21 -25 -35 -25 -22 -34 -24 -51 -15 -13 7 -47 9 -85
6 -35 -2 -63 -3 -61 -2 2 2 23 15 48 29 35 20 59 26 107 26 34 0 64 -4 67 -9z
m519 -10 c4 -4 0 -14 -9 -22 -13 -10 -59 -13 -223 -10 -113 1 -208 5 -211 8
-3 3 6 14 20 25 24 20 33 20 220 14 107 -4 198 -10 203 -15z m542 5 c17 -12
17 -16 5 -31 -11 -14 -27 -15 -99 -11 -47 3 -156 6 -241 6 l-155 1 28 24 c28
25 29 25 236 25 161 0 211 -3 226 -14z m2060 2 c14 -6 25 -17 25 -25 0 -10
-25 -13 -107 -14 -60 -1 -165 -2 -235 -3 -127 -1 -138 2 -138 34 0 14 37 17
237 19 127 1 201 -3 218 -11z m532 -12 l27 -24 -211 -7 c-215 -7 -253 -4 -253
20 0 24 53 31 262 33 141 2 148 1 175 -22z m250 -1 l37 -26 -41 7 c-25 4 -43
2 -47 -5 -13 -20 -74 -13 -90 11 -22 31 -12 38 49 38 41 0 63 -6 92 -25z
m-3498 -64 c16 -10 0 -46 -27 -59 -9 -4 -118 -5 -242 -2 l-225 5 42 27 c39 26
49 28 175 31 73 1 162 4 198 5 36 1 71 -2 79 -7z m474 1 c80 -2 97 -5 97 -17
0 -24 -48 -68 -63 -58 -6 4 -110 10 -231 13 l-218 5 19 24 c30 37 69 40 396
33z m2356 -21 c52 -37 41 -39 -206 -43 -223 -3 -239 -3 -255 15 -47 51 -16 57
257 50 150 -4 184 -8 204 -22z m542 4 c14 -8 31 -21 38 -29 12 -14 -1 -16
-125 -16 -77 0 -182 -3 -234 -6 l-96 -7 -18 27 c-10 15 -15 35 -12 43 6 14 32
15 214 8 139 -5 215 -12 233 -20z m-2231 -14 c0 -22 -6 -32 -22 -37 -25 -7
-488 5 -488 14 0 3 10 16 22 29 21 23 24 23 255 23 l233 0 0 -29z m558 17 c7
-7 12 -20 12 -29 0 -24 -119 -33 -325 -24 -161 7 -165 8 -165 30 0 12 3 25 7
28 12 13 458 8 471 -5z m577 -15 c14 -15 25 -32 25 -37 0 -5 -56 -6 -137 -3
-75 4 -189 7 -254 7 -109 0 -118 2 -124 20 -3 11 -3 24 0 30 4 6 92 10 235 10
l229 0 26 -27z m-2419 -85 c4 -7 -6 -23 -26 -40 l-34 -28 -233 0 c-132 0 -233
4 -233 9 0 5 24 23 53 39 l52 31 207 0 c148 1 209 -2 214 -11z m591 -1 c3 -3
-5 -19 -18 -36 l-24 -30 -242 0 c-134 -1 -243 2 -243 7 0 12 13 26 45 51 30
23 31 23 253 18 122 -2 225 -7 229 -10z m617 4 c3 -5 1 -23 -5 -40 l-11 -31
-270 0 c-213 0 -268 3 -262 13 4 6 17 24 28 40 l20 27 247 0 c136 0 250 -4
253 -9z m706 -16 c21 -54 31 -52 -282 -57 -161 -3 -297 -2 -302 2 -13 13 4 68
22 73 9 2 137 5 285 6 l267 1 10 -25z m603 -6 c39 -48 34 -49 -227 -49 l-244
0 -11 31 c-6 18 -11 37 -11 42 0 7 80 8 238 3 224 -6 238 -8 255 -27z m591 3
c74 -51 70 -52 -202 -52 l-251 0 -19 28 c-10 15 -22 33 -26 40 -6 9 42 12 226
12 l233 -1 39 -27z m581 -3 c30 -17 55 -35 55 -40 0 -5 -105 -9 -243 -9 l-243
0 -29 30 c-25 26 -27 32 -15 40 8 5 106 10 218 10 l202 0 55 -31z m-4997 -452
c30 -13 2293 -17 4622 -7 l1215 5 47 28 c26 15 52 35 57 45 10 16 10 16 11 -1
0 -34 -29 -74 -67 -93 -32 -16 -71 -20 -243 -25 -332 -10 -5610 2 -5652 12
-47 12 -98 62 -98 96 0 25 0 25 41 -11 22 -20 52 -42 67 -49z m-1728 -51 c0
-8 -145 -63 -180 -69 l-35 -6 40 19 c22 10 49 19 60 20 11 0 38 9 60 20 40 19
55 24 55 16z m-227 -73 c-7 -2 -19 -2 -25 0 -7 3 -2 5 12 5 14 0 19 -2 13 -5z"/>
<path d="M3622 4909 c36 -64 209 -232 224 -217 3 3 -9 14 -27 25 -48 31 -145
130 -180 184 -38 60 -48 64 -17 8z"/>
<path d="M4709 4813 c-13 -16 -12 -17 4 -4 16 13 21 21 13 21 -2 0 -10 -8 -17
-17z"/>
<path d="M4669 4763 c-13 -16 -12 -17 4 -4 16 13 21 21 13 21 -2 0 -10 -8 -17
-17z"/>
<path d="M6852 5195 c0 -16 2 -22 5 -12 2 9 2 23 0 30 -3 6 -5 -1 -5 -18z"/>
<path d="M6719 4883 c-13 -16 -12 -17 4 -4 9 7 17 15 17 17 0 8 -8 3 -21 -13z"/>
<path d="M5817 4669 c7 -7 15 -10 18 -7 3 3 -2 9 -12 12 -14 6 -15 5 -6 -5z"/>
<path d="M3080 5296 c0 -6 34 -39 76 -76 24 -21 23 -19 -6 16 -33 38 -70 70
-70 60z"/>
<path d="M4848 4532 c-52 -94 -48 -153 17 -241 168 -229 554 -197 671 54 37
78 30 125 -28 208 -19 26 -22 27 -37 13 -10 -9 -20 -16 -24 -16 -3 0 -43 -22
-88 -50 -93 -56 -126 -65 -213 -57 -78 8 -194 48 -189 65 3 7 -4 12 -16 12
-12 0 -21 5 -21 10 0 6 -7 10 -15 10 -9 0 -19 9 -23 20 -6 17 -11 13 -34 -28z"/>
<path d="M4525 4327 c-23 -12 -64 -32 -92 -45 -67 -30 -88 -53 -73 -81 13 -26
58 -28 101 -5 34 17 30 19 107 -48 64 -54 207 -124 319 -155 90 -26 112 -28
283 -28 147 0 198 4 250 18 156 43 314 121 394 195 35 32 36 32 72 17 70 -29
127 -9 103 36 -12 24 -196 121 -221 117 -11 -2 -27 -13 -35 -24 -12 -19 -11
-25 12 -52 l25 -30 -56 -37 c-71 -47 -177 -96 -284 -130 -115 -37 -315 -46
-435 -20 -159 35 -330 110 -397 173 l-28 25 30 19 c31 18 39 45 18 66 -18 18
-48 14 -93 -11z"/>
<path d="M5044 3858 c-20 -32 180 -51 251 -23 25 9 45 20 45 23 0 9 -291 9
-296 0z"/>
<path d="M4470 3736 c0 -2 8 -10 18 -17 15 -13 16 -12 3 4 -13 16 -21 21 -21
13z"/>
<path d="M4556 3671 c-9 -13 18 -31 33 -22 9 6 10 11 2 15 -6 4 -11 2 -11 -4
0 -6 -5 -8 -10 -5 -6 4 -8 11 -5 16 4 5 4 9 1 9 -3 0 -7 -4 -10 -9z"/>
<path d="M4600 3640 c-13 -9 -13 -10 0 -11 8 -1 20 -3 25 -4 6 -2 16 -3 23 -4
7 0 10 -5 7 -11 -3 -5 -1 -10 6 -10 7 0 58 -22 113 -49 122 -60 205 -87 283
-95 l58 -6 -65 15 c-101 23 -205 62 -315 120 -55 29 -106 50 -114 48 -8 -4
-11 -1 -7 6 9 13 6 14 -14 1z"/>
<path d="M5328 3463 c7 -3 16 -2 19 1 4 3 -2 6 -13 5 -11 0 -14 -3 -6 -6z"/>
<path d="M5133 3443 c9 -2 25 -2 35 0 9 3 1 5 -18 5 -19 0 -27 -2 -17 -5z"/>
<path d="M7430 2676 c0 -3 9 -10 20 -16 11 -6 20 -8 20 -6 0 3 -9 10 -20 16
-11 6 -20 8 -20 6z"/>
<path d="M9493 1203 c26 -2 67 -2 90 0 23 2 2 3 -48 3 -49 0 -68 -1 -42 -3z"/>
<path d="M5005 1671 c18 -4 -11 -8 -75 -12 -58 -3 28 -4 190 -3 307 2 332 3
324 16 -3 4 -110 7 -237 7 -128 -1 -218 -5 -202 -8z m62 -7 c-3 -3 -12 -4 -19
-1 -8 3 -5 6 6 6 11 1 17 -2 13 -5z m251 -1 c-32 -2 -84 -2 -115 0 -32 2 -6 3
57 3 63 0 89 -1 58 -3z"/>
<path d="M2580 5719 c0 -5 5 -7 10 -4 6 3 10 8 10 11 0 2 -4 4 -10 4 -5 0 -10
-5 -10 -11z"/>
<path d="M2164 5702 c4 -3 14 -7 22 -8 9 -1 13 0 10 4 -4 3 -14 7 -22 8 -9 1
-13 0 -10 -4z"/>
<path d="M8656 5088 c-3 -13 0 -27 6 -33 8 -7 9 -6 4 3 -4 7 -3 19 4 27 6 8 7
16 2 19 -6 3 -12 -4 -16 -16z"/>
<path d="M8686 5084 c-9 -24 -2 -26 12 -4 7 11 8 20 3 20 -5 0 -12 -7 -15 -16z"/>
<path d="M8000 4920 c0 -5 7 -10 15 -10 8 0 15 5 15 10 0 6 -7 10 -15 10 -8 0
-15 -4 -15 -10z"/>
<path d="M8296 4880 c-50 -15 -76 -48 -76 -96 0 -48 8 -54 79 -54 63 0 106 16
125 45 48 73 -28 135 -128 105z"/>
<path d="M2017 4636 c-4 -10 -1 -13 9 -9 7 3 14 9 14 14 0 14 -17 10 -23 -5z"/>
<path d="M1901 4594 c0 -11 3 -14 6 -6 3 7 2 16 -1 19 -3 4 -6 -2 -5 -13z"/>
<path d="M1468 4233 c7 -3 16 -2 19 1 4 3 -2 6 -13 5 -11 0 -14 -3 -6 -6z"/>
<path d="M0 3902 l0 -247 153 -18 c83 -9 188 -21 232 -27 44 -5 166 -18 270
-30 105 -11 264 -30 355 -40 316 -37 581 -61 614 -54 24 4 84 48 203 148 93
78 197 164 232 191 l63 50 -34 7 c-19 4 -119 16 -224 28 -277 30 -740 89
-1322 169 -281 39 -519 71 -527 71 -13 0 -15 -34 -15 -248z"/>
<path d="M10035 4105 c-88 -12 -252 -34 -365 -49 -113 -15 -284 -38 -380 -52
-261 -36 -528 -71 -775 -99 -121 -14 -229 -26 -240 -28 -15 -1 -2 -17 59 -67
43 -36 147 -123 230 -194 l151 -128 135 5 c137 6 402 32 835 82 137 15 219 19
177 7 -22 -7 -22 -8 -5 -22 13 -11 41 -15 101 -15 45 0 82 3 82 7 0 5 9 8 20
8 12 0 20 7 20 16 0 14 11 16 80 12 l80 -5 0 274 0 273 -22 -1 c-13 -1 -95
-11 -183 -24z m153 -482 c-10 -2 -26 -2 -35 0 -10 3 -2 5 17 5 19 0 27 -2 18
-5z m-85 -10 c-13 -2 -33 -2 -45 0 -13 2 -3 4 22 4 25 0 35 -2 23 -4z m-80
-10 c-7 -2 -21 -2 -30 0 -10 3 -4 5 12 5 17 0 24 -2 18 -5z m-75 -10 c-10 -2
-26 -2 -35 0 -10 3 -2 5 17 5 19 0 27 -2 18 -5z"/>
<path d="M158 3613 c7 -3 16 -2 19 1 4 3 -2 6 -13 5 -11 0 -14 -3 -6 -6z"/>
<path d="M368 3593 c7 -3 16 -2 19 1 4 3 -2 6 -13 5 -11 0 -14 -3 -6 -6z"/>
<path d="M9492 3478 c2 -60 2 -61 5 -13 3 31 10 55 20 63 15 11 15 12 -5 12
-20 0 -22 -4 -20 -62z"/>
<path d="M9491 3394 c0 -11 3 -14 6 -6 3 7 2 16 -1 19 -3 4 -6 -2 -5 -13z"/>
<path d="M461 3332 c0 -14 -10 -26 -23 -31 -19 -7 -15 -9 27 -15 108 -13 443
-37 471 -34 16 2 -23 7 -86 11 -63 5 -145 13 -181 18 -37 5 -91 11 -120 14
-73 8 -77 10 -82 37 l-4 23 -2 -23z"/>
<path d="M9830 3290 c0 -5 5 -10 10 -10 6 0 10 5 10 10 0 6 -4 10 -10 10 -5 0
-10 -4 -10 -10z"/>
<path d="M9423 3253 c9 -2 25 -2 35 0 9 3 1 5 -18 5 -19 0 -27 -2 -17 -5z"/>
<path d="M1035 3240 c52 -9 152 -13 144 -6 -2 2 -47 6 -99 9 -68 4 -81 3 -45
-3z"/>
<path d="M9223 3233 c9 -2 23 -2 30 0 6 3 -1 5 -18 5 -16 0 -22 -2 -12 -5z"/>
<path d="M945 1646 c-274 -77 -439 -128 -705 -216 l-235 -79 -3 -215 -2 -214
92 -22 c51 -12 120 -25 153 -27 74 -6 101 3 655 235 217 90 483 200 590 244
371 152 489 205 527 238 14 12 23 24 20 26 -2 2 -42 -9 -87 -25 l-83 -29 -81
15 c-45 8 -196 37 -336 65 -140 28 -268 52 -285 54 -16 2 -115 -20 -220 -50z"/>
<path d="M1425 1680 c-7 -11 3 -15 51 -24 18 -3 43 -8 58 -12 36 -9 36 23 0
36 -33 13 -101 13 -109 0z"/>
</g>
</svg>
